<?xml version="1.0" encoding="UTF-8"?>
<!DOCTYPE svg PUBLIC "-//W3C//DTD SVG 1.1//EN" "http://www.w3.org/Graphics/SVG/1.1/DTD/svg11.dtd">
<!-- Creator: CorelDRAW X7 -->
<svg xmlns="http://www.w3.org/2000/svg" xml:space="preserve" width="50mm" height="25mm" version="1.1" style="shape-rendering:geometricPrecision; text-rendering:geometricPrecision; image-rendering:optimizeQuality; fill-rule:evenodd; clip-rule:evenodd"
viewBox="0 0 5000 2500"
 xmlns:xlink="http://www.w3.org/1999/xlink">
 <defs>
  <style type="text/css">
   <![CDATA[
    .fil0 {fill:#FEFEFE}
    .fil1 {fill:#FEFEFE;fill-rule:nonzero}
   ]]>
  </style>
 </defs>
 <g id="Warstwa_x0020_1">
  <metadata id="CorelCorpID_0Corel-Layer"/>
  <path class="fil0" d="M741 2008l0 0zm0 0c7,-8 5,-5 16,-18 293,-356 147,-150 352,-258 -26,-38 -192,-173 -260,-189 -51,-13 -81,12 -131,16 -4,-49 -22,-73 -23,-126 85,-7 171,-73 337,65 130,108 286,256 431,232 201,-34 171,-159 164,-298 -4,-113 -51,-75 -92,-137 9,-35 39,-69 57,-104 26,7 69,32 90,49 27,23 41,50 60,78 76,-51 170,-106 253,-150 24,36 49,77 69,115l-196 115c-82,58 -92,86 -92,219 40,9 38,16 89,27 144,30 504,-180 337,-430 127,-189 -32,-364 -195,-368 -3,-95 -48,-161 -108,-202 -88,-61 -153,-37 -261,-28l-41 -62c-133,-150 -278,-70 -350,-53 14,50 113,138 228,123 53,-7 51,-21 64,47 30,164 -95,14 -81,135 13,115 -15,117 -15,213 -44,-4 -94,-20 -138,-23 39,-82 47,-214 -59,-298 -73,-58 -176,-245 -477,-123 -34,13 -56,24 -82,44 -144,113 -118,157 -161,254 -20,46 -247,132 -130,353 146,-98 181,-207 195,-380 100,0 137,-26 122,73 -13,84 -8,107 -41,169l299 -14 0 129c-171,0 -498,-4 -525,211 -13,104 55,181 134,226 52,29 16,-4 47,45 40,64 78,91 183,93 -16,71 -63,162 -69,230zm1185 -230c-141,0 -99,-9 -207,-34 -149,99 -115,115 -345,115 -48,0 -71,-14 -111,-29 -59,-23 -38,-10 -92,21 -157,88 -113,-29 -264,162 -47,59 -164,212 -177,271 -45,-23 -159,-99 -185,-138 15,-64 71,-184 92,-276 -77,-21 -93,-84 -155,-132 -231,-176 -139,-300 -165,-391 0,0 -210,-270 30,-492 133,-124 14,-30 129,-205 142,-214 359,-272 608,-225 95,17 110,-97 301,-97 123,0 201,39 271,98 112,91 110,-3 281,87 102,53 132,110 175,194 32,63 338,132 257,456 -32,128 50,142 -7,303 -33,93 -93,148 -169,199 -78,53 -137,113 -267,113z"/>
  <path class="fil1" d="M2745 1763l0 -927 273 0c96,0 170,22 224,64 54,42 80,106 80,190 0,44 -9,83 -29,117 -19,34 -49,60 -88,77 49,12 85,36 109,75 23,38 35,82 35,134 0,89 -26,156 -76,202 -51,46 -124,68 -219,68l-309 0zm181 -409l0 265 128 0c39,0 67,-11 86,-32 19,-22 28,-53 28,-95 0,-45 -8,-78 -24,-102 -16,-24 -42,-36 -77,-36l-141 0zm0 -127l100 0c37,0 66,-11 85,-32 20,-20 30,-50 30,-89 0,-43 -10,-75 -31,-95 -20,-20 -51,-30 -92,-30l-92 0 0 246zm799 549c-87,0 -156,-28 -206,-85 -51,-57 -77,-128 -77,-215l0 -97c0,-92 24,-169 71,-228 48,-59 113,-89 197,-89 80,0 143,27 187,81 44,54 66,127 66,220l0 111 -341 0 0 3c0,45 11,82 31,111 21,29 52,44 94,44 33,0 61,-4 82,-12 21,-7 47,-20 76,-38l46 116c-24,22 -56,41 -95,56 -40,15 -84,22 -131,22zm-15 -569c-29,0 -51,13 -64,39 -14,26 -21,62 -23,107l162 0 0 -26c0,-38 -6,-68 -18,-89 -11,-21 -31,-31 -57,-31zm510 -132l7 94c19,-33 43,-60 71,-79 27,-19 58,-28 92,-28 57,0 102,22 135,66 33,44 49,114 49,208l0 427 -181 0 0 -427c0,-48 -7,-81 -20,-100 -14,-20 -34,-29 -62,-29 -17,0 -31,4 -45,12 -13,9 -25,20 -34,35l0 509 -181 0 0 -688 169 0z"/>
 </g>
</svg>
