<?xml version="1.0" encoding="UTF-8"?>
<!DOCTYPE svg PUBLIC "-//W3C//DTD SVG 1.1//EN" "http://www.w3.org/Graphics/SVG/1.1/DTD/svg11.dtd">
<!-- Creator: CorelDRAW X7 -->
<svg xmlns="http://www.w3.org/2000/svg" xml:space="preserve" width="50mm" height="50mm" version="1.1" style="shape-rendering:geometricPrecision; text-rendering:geometricPrecision; image-rendering:optimizeQuality; fill-rule:evenodd; clip-rule:evenodd"
viewBox="0 0 5000 5000"
 xmlns:xlink="http://www.w3.org/1999/xlink">
 <defs>
  <style type="text/css">
   <![CDATA[
    .fil0 {fill:#037EBF}
    .fil1 {fill:#037EBF;fill-rule:nonzero}
   ]]>
  </style>
 </defs>
 <g id="Warstwa_x0020_1">
  <metadata id="CorelCorpID_0Corel-Layer"/>
  <g id="_1563993627904">
   <path class="fil0" d="M1518 3439l0 0zm0 0c11,-14 8,-9 27,-33 509,-617 256,-258 611,-446 -45,-67 -333,-300 -451,-329 -89,-21 -141,22 -227,29 -7,-86 -38,-127 -40,-219 147,-12 296,-126 585,113 225,187 495,444 747,402 348,-59 296,-276 285,-516 -8,-197 -88,-131 -160,-239 16,-61 67,-119 99,-179 45,12 120,55 155,85 48,39 72,86 105,134 132,-88 295,-183 439,-259 41,61 84,133 120,199l-340 199c-142,101 -159,149 -159,380 69,16 65,29 154,47 250,52 874,-313 584,-745 221,-330 -55,-633 -339,-639 -4,-165 -82,-279 -187,-351 -153,-105 -265,-64 -452,-48l-71 -108c-232,-260 -483,-121 -607,-92 23,87 195,239 395,213 91,-12 88,-37 110,82 54,285 -163,24 -140,233 22,200 -26,205 -26,370 -76,-6 -163,-33 -239,-40 67,-141 82,-370 -103,-516 -127,-100 -304,-425 -828,-214 -58,23 -96,42 -142,77 -249,197 -204,271 -278,440 -35,80 -429,230 -226,613 253,-170 314,-359 339,-659 173,0 237,-46 210,127 -22,145 -13,185 -70,292l519 -24 0 224c-298,0 -864,-7 -911,366 -23,180 96,314 233,391 90,52 27,-6 80,80 70,110 137,156 318,161 -28,122 -110,281 -119,399zm2055 -399c-244,0 -171,-17 -359,-60 -258,172 -200,199 -599,199 -83,0 -123,-24 -191,-50 -103,-39 -68,-16 -161,37 -272,153 -195,-50 -458,281 -81,103 -283,367 -307,471 -78,-41 -275,-173 -320,-240 26,-112 123,-319 160,-479 -135,-36 -162,-145 -271,-228 -400,-306 -240,-522 -284,-679 0,-1 -366,-469 51,-854 232,-215 24,-51 224,-355 247,-372 622,-471 1054,-391 165,30 192,-167 523,-167 213,0 348,68 470,168 194,160 190,-3 487,152 177,92 229,191 303,336 56,109 587,230 447,792 -55,222 86,247 -12,526 -57,161 -162,255 -294,345 -135,92 -238,196 -463,196z"/>
   <path class="fil1" d="M2157 4461l0 -972 286 0c101,0 179,22 235,67 57,44 85,110 85,199 0,46 -10,87 -31,123 -20,36 -51,63 -92,81 51,12 89,38 114,78 24,40 36,87 36,141 0,93 -26,163 -80,211 -53,49 -129,72 -228,72l-325 0zm190 -429l0 278 135 0c40,0 70,-12 89,-34 20,-22 30,-55 30,-100 0,-46 -8,-82 -25,-107 -17,-25 -44,-37 -82,-37l-147 0zm0 -133l105 0c39,-1 69,-12 89,-33 21,-22 32,-53 32,-94 0,-45 -11,-78 -33,-100 -21,-21 -53,-31 -97,-31l-96 0 0 258zm838 576c-91,0 -163,-30 -216,-89 -54,-60 -81,-135 -81,-226l0 -101c0,-98 25,-178 75,-240 50,-62 118,-93 206,-93 85,0 150,28 196,84 47,57 70,134 70,232l0 116 -358 0 0 3c0,47 11,86 33,116 21,31 54,46 98,46 35,0 64,-4 86,-12 23,-8 49,-21 80,-39l48 120c-25,24 -58,44 -100,60 -42,15 -87,23 -137,23zm-16 -598c-30,0 -53,14 -67,42 -14,27 -22,65 -24,112l170 0 0 -27c0,-40 -6,-71 -18,-94 -13,-22 -33,-33 -61,-33zm535 -138l8 99c20,-35 44,-63 74,-83 29,-20 61,-29 96,-29 60,0 108,23 142,69 35,46 52,119 52,218l0 448 -190 0 0 -448c0,-50 -8,-85 -21,-105 -15,-21 -36,-31 -66,-31 -17,0 -32,5 -46,14 -15,9 -27,21 -36,37l0 533 -190 0 0 -722 177 0z"/>
  </g>
 </g>
</svg>
