<?xml version="1.0" encoding="UTF-8"?>
<!DOCTYPE svg PUBLIC "-//W3C//DTD SVG 1.1//EN" "http://www.w3.org/Graphics/SVG/1.1/DTD/svg11.dtd">
<!-- Creator: CorelDRAW X7 -->
<svg xmlns="http://www.w3.org/2000/svg" xml:space="preserve" width="71mm" height="73mm" version="1.1" style="shape-rendering:geometricPrecision; text-rendering:geometricPrecision; image-rendering:optimizeQuality; fill-rule:evenodd; clip-rule:evenodd"
viewBox="0 0 7100 7300"
 xmlns:xlink="http://www.w3.org/1999/xlink">
 <defs>
  <style type="text/css">
   <![CDATA[
    .fil0 {fill:black}
   ]]>
  </style>
 </defs>
 <g id="Warstwa_x0020_1">
  <metadata id="CorelCorpID_0Corel-Layer"/>
  <path class="fil0" d="M5385 6416l332 -317 945 931c-152,80 -220,63 -402,63 -231,0 -366,-153 -487,-275 -117,-117 -305,-278 -388,-402zm-5308 -6379l45 0c61,23 140,113 161,134l2837 2837c119,120 305,332 430,416 131,-88 2746,-2732 3069,-3055 123,-123 431,-498 431,-247 0,95 -338,380 -416,459l-2978 2963 1475 1461c84,-23 106,-56 180,-102 170,-105 434,-159 618,-134 220,30 260,41 416,122 615,323 38,424 -227,819 52,192 897,833 940,1036 56,266 -405,517 -629,517 -739,0 -707,-405 -1157,-706 -82,55 -38,57 -141,85 -466,-404 -470,-970 -106,-1503l-1482 -1468 -1461 1475c349,521 357,1087 -113,1496 -103,-28 -59,-30 -141,-85 -450,301 -418,706 -1157,706 -224,0 -685,-251 -629,-517 43,-203 888,-844 940,-1036 -76,-113 -508,-466 -508,-564 0,-175 478,-353 693,-381 391,-52 717,218 809,247l1461 -1475c-128,-85 -2341,-2327 -2561,-2547 -108,-108 -826,-781 -826,-868 0,-49 11,-75 27,-85zm763 7056c-178,0 -245,16 -395,-56l925 -938 339 323c-77,118 -252,267 -368,382 -125,126 -263,289 -501,289zm4996 -1129l136 -118 732 718c82,82 193,136 205,275 -70,47 -78,76 -168,32 -48,-24 -95,-81 -136,-123 -175,-179 -686,-660 -769,-784zm-5645 875c12,-135 294,-364 445,-515 126,-126 360,-387 487,-472l136 118c-84,126 -365,378 -496,510l-386 380c-99,61 -113,28 -186,-21zm4968 -423c-244,-164 -292,-635 -133,-979 192,-416 709,-617 1138,-450 105,41 174,106 265,131 -35,131 -1196,1248 -1270,1298zm-4488 -1298c88,-24 149,-82 245,-122 234,-100 436,-89 674,-7 658,225 724,1177 351,1427 -78,-53 -1161,-1091 -1270,-1298z"/>
 </g>
</svg>
