<?xml version="1.0" encoding="UTF-8"?>
<!DOCTYPE svg PUBLIC "-//W3C//DTD SVG 1.1//EN" "http://www.w3.org/Graphics/SVG/1.1/DTD/svg11.dtd">
<!-- Creator: CorelDRAW X7 -->
<svg xmlns="http://www.w3.org/2000/svg" xml:space="preserve" width="43mm" height="42mm" version="1.1" style="shape-rendering:geometricPrecision; text-rendering:geometricPrecision; image-rendering:optimizeQuality; fill-rule:evenodd; clip-rule:evenodd"
viewBox="0 0 4300 4200"
 xmlns:xlink="http://www.w3.org/1999/xlink">
 <defs>
  <style type="text/css">
   <![CDATA[
    .fil0 {fill:#171516}
   ]]>
  </style>
 </defs>
 <g id="Warstwa_x0020_1">
  <metadata id="CorelCorpID_0Corel-Layer"/>
  <g id="_2225645637824">
   <path class="fil0" d="M845 3111c36,-111 3,-93 70,0l36 35 19 106c46,129 49,-31 122,70l35 35c123,66 100,1 71,142 172,-16 27,-71 317,-71 25,103 -5,51 71,106l176 -459c-506,-11 -834,-287 -928,-765 -47,-239 -19,-520 98,-701 134,-206 89,-43 59,-303 -16,-143 22,-292 65,-383 245,6 323,111 494,180 177,71 391,-39 600,-39 175,0 424,99 575,49 191,-63 251,-184 519,-190 36,77 77,228 69,351 -17,237 -95,115 40,315 320,473 122,1465 -815,1486 39,144 114,172 138,392 51,487 -155,845 307,654 144,-59 242,-125 360,-206 571,-390 865,-948 924,-1520l0 -434c-90,-888 -726,-1716 -1748,-1901 -1213,-220 -2343,670 -2486,1826l0 495c48,385 207,786 509,1174 161,208 796,676 1001,609 133,-43 78,-173 78,-489 -326,0 -518,17 -657,-190 -66,-99 -88,-189 -154,-269 -85,-104 -124,-80 -212,-211l176 0c33,69 -21,70 71,106z"/>
   <polygon class="fil0" points="1339,3534 1444,3534 1444,3463 1339,3463 "/>
   <path class="fil0" d="M1127 3357l-35 -35 -78 64c55,33 46,26 113,42l0 -71z"/>
   <polygon class="fil0" points="951,3146 915,3111 845,3111 883,3179 "/>
  </g>
 </g>
</svg>
